PathFileType	4	(X/Y/Z)	OpenSim_Sub07_EMGStiffKnee_Gyro.trc
DataRate	CameraRate	NumFrames	NumMarkers	Units	OrigDataRate	OrigDataStartFrame	OrigNumFrames
100	100	37	8	m	100	4618	7388
Frame#	Time	torso_imu_offset_imu	pelvis_imu_offset_imu	tibia_r_imu_offset_imu	femur_r_imu_offset_imu	tibia_l_imu_offset_imu	femur_l_imu_offset_imu	toes_r_imu_offset_imu	toes_l_imu_offset_imu
				X1	Y1	Z1	X2	Y2	Z2	X3	Y3	Z3	X4	Y4	Z4	X5	Y5	Z5	X6	Y6	Z6	X7	Y7	Z7	X8		Y8	Z8	

4618	46.17000000	-0.05597971	0.13267433	0.12271261	0.16688854	0.15264318	-0.09190773	-0.22915201	-0.03158724	-0.23886120	0.32687361	0.76821325	-1.03556748	0.16686178	-0.43790028	-2.19295918	-0.09152175	0.17637128	-0.74145717	-0.02333905	-0.12453056	0.04869787	0.63859089	1.55104530	-0.67479995
4619	46.18000000	-0.03733502	0.12876380	0.10922263	0.13490486	0.14395554	-0.09318067	-0.15316698	-0.01400152	-0.29866453	0.32943587	0.75672199	-1.06015678	0.36034327	-0.49277061	-2.13425217	-0.06096513	0.13343420	-0.68464535	-0.02912275	-0.12761776	0.06772391	0.69210585	1.58065988	-0.54523799
4620	46.19000000	-0.01722021	0.12550358	0.09349118	0.08575765	0.11651892	-0.09738491	-0.06733584	-0.00462617	-0.39092822	0.33338786	0.70954009	-1.05217987	0.58934902	-0.56486329	-2.07305001	-0.06730956	0.09143079	-0.62842145	-0.05185266	-0.11221452	0.08081050	0.73243956	1.66311085	-0.44981855
4621	46.20000000	0.00651828	0.12133150	0.07420932	0.02711506	0.08340049	-0.10489789	-0.00195960	-0.00973635	-0.48414849	0.31447429	0.63170527	-0.99429271	0.72658290	-0.65207428	-2.00679988	-0.07436551	0.04363801	-0.57118155	-0.10618184	-0.16638430	0.10505181	0.72760361	1.72387175	-0.39871659
4622	46.21000000	0.04194087	0.11087845	0.05246842	-0.03074394	0.04837468	-0.11005409	0.03784441	-0.03423605	-0.56895722	0.26918801	0.52812643	-0.90317474	0.70772150	-0.71965994	-1.92314650	-0.03903430	-0.00806503	-0.51375355	-0.14443712	-0.19828416	0.11979138	0.77282708	1.70687634	-0.38326664
4623	46.22000000	0.07520231	0.09347958	0.02768571	-0.09524193	0.01183760	-0.11533083	0.07709831	-0.05419775	-0.65976514	0.18364924	0.39430208	-0.78314878	0.64179033	-0.74422568	-1.82267322	0.04374731	-0.06547356	-0.45333494	-0.17230594	-0.23004979	0.12786040	0.80346449	1.65752454	-0.39566780
4624	46.23000000	0.11059893	0.07466903	0.01198245	-0.15669976	-0.03126766	-0.11686096	0.08905024	-0.09150164	-0.75813828	0.03927257	0.26037426	-0.62903547	0.58791037	-0.72994829	-1.71643889	0.13221039	-0.12093976	-0.38672220	-0.24599515	-0.27879527	0.14841711	0.70893606	1.54223323	-0.44989662
4625	46.24000000	0.14445926	0.04411300	-0.00444143	-0.20018073	-0.07714523	-0.09268626	0.11680897	-0.12588888	-0.85669638	-0.09523439	0.15556179	-0.47102157	0.50572503	-0.69134093	-1.61523544	0.22140133	-0.17174568	-0.29407470	-0.24820307	-0.32945507	0.14807345	0.72243765	1.38426269	-0.56845291
4626	46.25000000	0.17868412	0.00376015	-0.02204110	-0.24196067	-0.11115265	-0.10450134	0.08501761	-0.18185844	-0.94580732	-0.18036287	0.10983146	-0.34535600	0.34365460	-0.62956432	-1.48282452	0.37046558	-0.26600145	-0.19919373	-0.20548628	-0.36211010	0.13171460	0.84756903	1.20916665	-0.71079016
4627	46.26000000	0.21790359	-0.03558867	-0.03434324	-0.28332090	-0.13281065	-0.10673912	0.04563107	-0.23496103	-1.01742203	-0.22900067	0.12765280	-0.26388541	0.19203763	-0.53815964	-1.27923511	0.55241891	-0.39603315	-0.12340122	-0.22470421	-0.41190184	0.14281338	0.67453423	1.01655902	-0.81918931
4628	46.27000000	0.26382565	-0.07867150	-0.04452563	-0.30695575	-0.14770232	-0.08801352	0.01547240	-0.27269488	-1.10312437	-0.20054329	0.15633384	-0.23359788	0.09866509	-0.46712555	-1.02297329	0.60185852	-0.46709156	-0.04011362	-0.23038814	-0.43408157	0.15526216	0.32161844	0.86062078	-0.91626015
4629	46.28000000	0.31768213	-0.11883684	-0.05102355	-0.34473711	-0.15510414	-0.09589656	-0.06666786	-0.30977178	-1.20211311	-0.05799700	0.16312089	-0.26491041	-0.09846797	-0.41362201	-0.69458579	0.39986729	-0.41258194	0.05317030	-0.25438407	-0.47861420	0.18984399	0.09751409	0.74358959	-1.00687376
4630	46.29000000	0.36555618	-0.15942117	-0.05639242	-0.37369494	-0.17244768	-0.06868130	-0.06393800	-0.32610182	-1.28339370	0.09159422	0.14564744	-0.30326218	-0.37645130	-0.37591021	-0.33719310	-0.03051960	-0.29754456	0.14776685	-0.27647874	-0.53294214	0.24047825	0.02942128	0.43303117	-1.04496256
4631	46.30000000	0.40905633	-0.21076658	-0.06513510	-0.39919941	-0.21116995	-0.07291185	0.00745304	-0.31829625	-1.35735024	0.13001599	0.13936888	-0.27757526	-0.63088663	-0.30164622	-0.00333667	-0.45611380	-0.20955185	0.18825060	-0.33040275	-0.62613303	0.32108603	0.12070248	0.04201408	-1.04972974
4632	46.31000000	0.44976295	-0.26506496	-0.07764222	-0.42264534	-0.24437544	-0.06537937	0.04539203	-0.32121451	-1.43943540	0.05395342	0.17160530	-0.19004079	-0.82883002	-0.20279233	0.29896635	-0.63574515	-0.19261060	0.12116282	-0.38343507	-0.72796800	0.41415600	0.07221233	-0.36406555	-1.03366219
4633	46.32000000	0.48383738	-0.30469482	-0.08838598	-0.45180496	-0.25449187	-0.06890486	0.07770749	-0.33911420	-1.53256742	-0.12674926	0.24845472	-0.09498594	-0.98861359	-0.12536185	0.58088382	-0.55448543	-0.28615073	-0.01523644	-0.42162888	-0.80899852	0.50460861	0.37853087	-0.36614448	-1.06759699
4634	46.33000000	0.51932637	-0.33727784	-0.09720189	-0.47089428	-0.26857457	-0.02755611	0.05118829	-0.36749632	-1.61516000	-0.38451262	0.35502629	-0.03084345	-1.11450671	-0.07508401	0.84695484	-0.27622726	-0.48990643	-0.14877225	-0.48265751	-0.92888199	0.59274774	0.30662205	-2.07000884	-0.60290843
4635	46.34000000	0.54363385	-0.37147453	-0.09848794	-0.47741669	-0.26958087	-0.02647946	0.01075792	-0.39681149	-1.68779942	-0.63536684	0.44537388	0.03177636	-1.41172436	0.01624479	1.09330443	0.12302624	-0.75627645	-0.20136790	-0.55319972	-1.09235730	0.68640119	-4.06512569	-3.63536115	0.26247123
4636	46.35000000	0.55499185	-0.39574946	-0.09197962	-0.46695673	-0.27558001	-0.03312733	-0.04301758	-0.44068575	-1.76393953	-0.82281321	0.47664320	0.11478462	-1.74633695	0.02042740	1.37420419	0.48232138	-0.99897095	-0.12850192	-0.61009682	-1.29406423	0.75399325	-4.53656238	-2.45878469	0.40423502
4637	46.36000000	0.53130594	-0.40789362	-0.08547373	-0.46991465	-0.27645620	-0.03980109	-0.15483005	-0.49210129	-1.84651669	-0.91336716	0.42777071	0.21378155	-1.76362041	-0.18444468	1.54829440	0.67554415	-1.13754443	0.04680453	-0.64560013	-1.46680425	0.80697707	-0.02320609	-2.69279503	0.35076159
4638	46.37000000	0.49919221	-0.41939865	-0.07482367	-0.43632523	-0.27956903	-0.05842662	-0.18662174	-0.52529365	-1.92688203	-0.88431966	0.29896521	0.30469989	-1.54506781	-0.45970466	1.26983002	0.67410355	-1.09441807	0.26373550	-0.68134229	-1.72056793	0.87968064	-1.95518371	-2.55240899	0.52003551
4639	46.38000000	0.45192013	-0.41275759	-0.07202872	-0.37247167	-0.30400559	-0.07335448	-0.24512355	-0.58483551	-2.01065314	-0.75188468	0.12436900	0.38426222	-0.71106047	-0.84636847	0.87065708	0.34327988	-0.97932387	0.43796794	-0.76032262	-2.01752873	0.97407625	-1.53052883	-2.93726527	0.61778686
4640	46.39000000	0.40444921	-0.38216463	-0.07014982	-0.33071902	-0.33248985	-0.12283677	-0.32608840	-0.66276526	-2.10304422	-0.55780941	-0.05691669	0.45015403	0.06220315	-0.93139352	0.85691954	-0.40440795	-0.82747216	0.55752957	-0.80792277	-2.38527347	1.06037259	0.60867090	-3.45799546	0.69565268
4641	46.40000000	0.36135344	-0.32749436	-0.07145049	-0.29543419	-0.33423162	-0.14378835	-0.37201407	-0.74511402	-2.19550772	-0.37220485	-0.20107699	0.51900335	-0.06198486	-0.56606599	1.03148054	-1.22118586	-0.53820370	0.55459385	-0.91577645	-2.83251717	1.17021258	-0.07384561	-3.06449137	0.80171858
4642	46.41000000	0.30309197	-0.26829326	-0.05911252	-0.21658004	-0.32659145	-0.18986941	-0.38265089	-0.81882139	-2.29656891	-0.24793221	-0.29475697	0.62150930	-0.60390835	-0.13211060	1.26227951	-1.55194199	-0.23984512	0.32519397	-1.01491506	-3.23981604	1.23703196	-0.02758444	-1.67374483	0.64909202
4643	46.42000000	0.23720612	-0.23801053	-0.03416287	-0.09214009	-0.31207492	-0.22605804	-0.35470739	-0.85338884	-2.39955667	-0.20487471	-0.34450877	0.77770331	-1.22887227	0.33718056	1.56928051	-1.27399458	-0.03201019	-0.03487156	-1.00212313	-3.72081553	1.24032074	-0.56233317	-0.27968032	0.40835191
4644	46.43000000	0.17244024	-0.22617086	-0.03071288	0.00835241	-0.30131662	-0.22680429	-0.38709300	-0.85938395	-2.50179849	-0.21016625	-0.33295064	0.97247393	-1.66064921	0.76760081	1.78263380	-0.54441546	0.11418762	-0.43004106	-1.23493119	-4.25507222	1.33513630	-1.20324738	-0.24879906	0.17956490
4645	46.44000000	0.13170705	-0.21201505	-0.06369161	0.03400245	-0.32739431	-0.18105600	-0.42236851	-0.84895974	-2.64684758	-0.25694817	-0.20704063	1.19858013	-1.75638424	0.70936297	1.76645003	0.35971736	0.01019041	-0.77133975	-1.42361243	-4.88285632	1.23716560	-1.03123061	-0.29339256	0.07470060
4646	46.45000000	0.12286177	-0.18566965	-0.10346211	-0.03937267	-0.34873529	-0.09541976	-0.41813529	-0.83295563	-2.80641601	-0.27748700	0.01512378	1.46414387	-1.63685730	0.07389225	1.63779322	0.88895759	-0.15640166	-0.80256149	-1.61720464	-5.23255710	0.90997296	-0.33329832	-0.34907172	0.06989064
4647	46.46000000	0.14549996	-0.15167688	-0.12875884	-0.18032772	-0.34104266	-0.00747917	-0.49629767	-0.83147693	-2.84375566	-0.01764967	0.12021745	1.72604598	-1.28951689	-0.33426961	1.59001769	0.77092551	-0.13138048	-0.35334802	-1.46043236	-5.45568918	0.60719642	0.22853108	-0.25736711	-0.01799607
4648	46.47000000	0.17963102	-0.11650274	-0.14519955	-0.30143023	-0.31825557	0.04752431	-0.45602701	-0.82072277	-2.81861495	0.40669918	0.06775215	1.93575570	-0.99520044	-0.34270346	1.53982051	0.72742663	-0.17081367	0.33599517	-1.11511840	-6.00972964	0.45004154	0.15636161	-0.02873403	0.05369982
4649	46.48000000	0.20901214	-0.08370435	-0.15254474	-0.37325303	-0.27078349	0.05723693	-0.31447687	-0.79240031	-2.82794893	0.60935148	0.05200309	2.07266008	-0.73559808	-0.42433851	1.20979969	1.40941884	-0.36399440	0.83423896	-1.48798991	-6.17394086	0.33098698	-0.31740794	-0.16694636	0.15606302
4650	46.49000000	0.23062806	-0.04871214	-0.15222175	-0.39844932	-0.22443046	0.01936104	-0.01065049	-0.71777853	-2.84761951	0.59172523	-0.00108623	2.18071324	-0.00319575	-0.46636640	0.80910539	2.08560855	-0.55892760	1.06031786	-0.92809559	-5.94753192	-0.26279486	-0.09830746	-0.00054625	0.17458641
4651	46.50000000	0.23106565	-0.01802805	-0.15390346	-0.38039608	-0.18162841	-0.03602846	0.52333389	-0.65418143	-2.78706029	0.51453459	-0.17327930	2.26492564	0.71056586	-0.30776183	0.75293754	1.96148332	-0.59258472	1.17949231	0.13945693	-5.67704649	-1.03149490	-0.16137940	0.02295813	0.18032935
4652	46.51000000	0.23584164	-0.01445587	-0.16008017	-0.34452197	-0.13363289	-0.09132360	0.85237701	-0.68136686	-2.57989334	0.45054038	-0.36598021	2.28277609	0.83905967	-0.10496240	0.91454833	1.29789500	-0.50227850	1.23127649	0.74768592	-5.29249188	-1.57556257	-0.10335111	0.00952067	0.17068269
4653	46.52000000	0.25285261	-0.03361758	-0.15825439	-0.29402432	-0.09572392	-0.12052342	0.93840454	-0.73359830	-2.33085710	0.42321462	-0.49077901	2.26393629	0.68973948	-0.04108226	0.96159099	0.59648791	-0.39045334	1.08546870	1.47162773	-5.17015793	-1.94283679	-0.11087336	0.02351214	0.14146639
4654	46.53000000	0.25507691	-0.05014809	-0.14249158	-0.24361858	-0.08022358	-0.11362955	1.04921731	-0.82633547	-2.08590910	0.38785654	-0.55441348	2.18901433	0.48062410	-0.07945296	0.88222988	-0.04354368	-0.32795349	0.76190472	2.37994625	-5.29588667	-2.27444726	-0.02215413	0.03460900	0.09648822
